/* XPM */
static char * image_xpm[] = {
"30 15 347 2",
"  	c None",
". 	c #C3BDBB",
"+ 	c #CAC2BF",
"@ 	c #CDC5C2",
"# 	c #D1C7C4",
"$ 	c #D0C5BD",
"% 	c #C9BEB6",
"& 	c #B7AAA6",
"* 	c #AD9E9A",
"= 	c #A29592",
"- 	c #98898A",
"; 	c #93868B",
"> 	c #958D90",
", 	c #C6C1BE",
"' 	c #D3CCC8",
") 	c #DED7D2",
"! 	c #E6DED9",
"~ 	c #EFE7E0",
"{ 	c #EFE6E0",
"] 	c #ECE4DE",
"^ 	c #EADED7",
"/ 	c #E7DACC",
"( 	c #E3D2BE",
"_ 	c #CAB5A9",
": 	c #B7A49B",
"< 	c #AA9790",
"[ 	c #9A8384",
"} 	c #88747B",
"| 	c #736772",
"1 	c #6E6874",
"2 	c #7B747E",
"3 	c #6E6570",
"4 	c #827A7F",
"5 	c #BCB6B4",
"6 	c #D8D2CD",
"7 	c #EAE3DC",
"8 	c #F4ECE5",
"9 	c #F5EDE6",
"0 	c #F3EBE3",
"a 	c #F2E9E1",
"b 	c #F0E8DF",
"c 	c #EEE5DD",
"d 	c #ECDFD5",
"e 	c #E8D8C5",
"f 	c #E0CBB8",
"g 	c #CDB1A6",
"h 	c #BCA59C",
"i 	c #AD9992",
"j 	c #998182",
"k 	c #87707C",
"l 	c #736377",
"m 	c #685F71",
"n 	c #645B6C",
"o 	c #625968",
"p 	c #6C636D",
"q 	c #756C71",
"r 	c #9C9597",
"s 	c #C2BBBA",
"t 	c #EBE4DD",
"u 	c #F4ECE4",
"v 	c #F2EAE3",
"w 	c #F2EAE2",
"x 	c #F1E9E1",
"y 	c #EFE4DA",
"z 	c #ECDCCB",
"A 	c #E8D6C1",
"B 	c #DCC6B4",
"C 	c #D1B7AB",
"D 	c #C7AEA3",
"E 	c #B99E98",
"F 	c #B08589",
"G 	c #A67283",
"H 	c #906881",
"I 	c #7B6279",
"J 	c #695D71",
"K 	c #645C6C",
"L 	c #6B606B",
"M 	c #726369",
"N 	c #6D5D60",
"O 	c #877E7F",
"P 	c #C0B8B7",
"Q 	c #E5DCD8",
"R 	c #F0E8E2",
"S 	c #EFE7DF",
"T 	c #EFE7DE",
"U 	c #F0E7DF",
"V 	c #EFE6DC",
"W 	c #EEE0D4",
"X 	c #DBCBBC",
"Y 	c #C3B3A6",
"Z 	c #AD9F97",
"` 	c #A6948E",
" .	c #B09991",
"..	c #BFA39A",
"+.	c #C7999A",
"@.	c #B57A88",
"#.	c #946A81",
"$.	c #766078",
"%.	c #6E6374",
"&.	c #716672",
"*.	c #76636D",
"=.	c #786168",
"-.	c #7A6367",
";.	c #755F65",
">.	c #83777A",
",.	c #B6B0AF",
"'.	c #D3C9C4",
").	c #EAE0D8",
"!.	c #EBE0D8",
"~.	c #EBE1D9",
"{.	c #ECE1D8",
"].	c #EDE0D7",
"^.	c #EDE1D8",
"/.	c #EDE1D7",
"(.	c #EEE1D4",
"_.	c #DFD1C5",
":.	c #A39693",
"<.	c #7C6F74",
"[.	c #73676F",
"}.	c #6A6068",
"|.	c #695D66",
"1.	c #6A5E65",
"2.	c #6D5E61",
"3.	c #927975",
"4.	c #BE9795",
"5.	c #B0898F",
"6.	c #997F85",
"7.	c #92797E",
"8.	c #8E747A",
"9.	c #8B6D74",
"0.	c #896970",
"a.	c #87676F",
"b.	c #86676D",
"c.	c #7E6A6C",
"d.	c #A9A3A1",
"e.	c #A79F9F",
"f.	c #D0C9C3",
"g.	c #D6CEC4",
"h.	c #DAD0C3",
"i.	c #DED1C1",
"j.	c #E0D1C0",
"k.	c #E4D3C0",
"l.	c #E6D4C0",
"m.	c #E7D5C1",
"n.	c #D7C6B6",
"o.	c #7C6E70",
"p.	c #625662",
"q.	c #655C66",
"r.	c #706771",
"s.	c #867C82",
"t.	c #827980",
"u.	c #6F646E",
"v.	c #5E505E",
"w.	c #544653",
"x.	c #776565",
"y.	c #C0A49D",
"z.	c #BC9D99",
"A.	c #B1948F",
"B.	c #A98C89",
"C.	c #A08484",
"D.	c #9B7E7E",
"E.	c #997D7A",
"F.	c #9A807A",
"G.	c #957A75",
"H.	c #9E9190",
"I.	c #9B9292",
"J.	c #B4A9A4",
"K.	c #B6A9A3",
"L.	c #BAADA6",
"M.	c #C0AEA4",
"N.	c #C4B0A3",
"O.	c #CBB4A7",
"P.	c #D2B9AC",
"Q.	c #D9C2B1",
"R.	c #C1AFA3",
"S.	c #64565C",
"T.	c #605360",
"U.	c #645964",
"V.	c #766C75",
"W.	c #948A90",
"X.	c #999295",
"Y.	c #7C727B",
"Z.	c #5C4D5C",
"`.	c #534553",
" +	c #6F5F61",
".+	c #C1AAA0",
"++	c #C8B1A5",
"@+	c #C2AAA0",
"#+	c #BCA49B",
"$+	c #B79E97",
"%+	c #B39691",
"&+	c #B08F8C",
"*+	c #B18C8A",
"=+	c #AC8685",
"-+	c #A49493",
";+	c #9D9394",
">+	c #988786",
",+	c #9F8B89",
"'+	c #A28D8A",
")+	c #A58F8A",
"!+	c #AA928A",
"~+	c #B39791",
"{+	c #BC9E98",
"]+	c #C7AAA2",
"^+	c #CCB3A8",
"/+	c #93807D",
"(+	c #574A52",
"_+	c #5B4E5C",
":+	c #615563",
"<+	c #695B69",
"[+	c #685A67",
"}+	c #5E4F5D",
"|+	c #544553",
"1+	c #63575E",
"2+	c #AC9E98",
"3+	c #D3BFB3",
"4+	c #D4BDAF",
"5+	c #D2B8AA",
"6+	c #D0B3A8",
"7+	c #CCAFA5",
"8+	c #C9AAA2",
"9+	c #C6A29E",
"0+	c #C29999",
"a+	c #AC8688",
"b+	c #ADA2A1",
"c+	c #807276",
"d+	c #816B71",
"e+	c #886D73",
"f+	c #897174",
"g+	c #897577",
"h+	c #8A7779",
"i+	c #8D777C",
"j+	c #8E737F",
"k+	c #A77B86",
"l+	c #BE9594",
"m+	c #BA9D99",
"n+	c #8D7777",
"o+	c #766365",
"p+	c #6C5E60",
"q+	c #776668",
"r+	c #897877",
"s+	c #A79893",
"t+	c #CBBFBA",
"u+	c #D2C5BD",
"v+	c #D6C5B9",
"w+	c #D4C0B5",
"x+	c #D5BEB0",
"y+	c #D5BDAE",
"z+	c #D3BBAC",
"A+	c #D1B8AA",
"B+	c #CDB3A8",
"C+	c #C2A6A0",
"D+	c #A28F8D",
"E+	c #989092",
"F+	c #7A6D72",
"G+	c #7A666A",
"H+	c #76686C",
"I+	c #766A6D",
"J+	c #856F71",
"K+	c #906870",
"L+	c #8D5F6D",
"M+	c #935F70",
"N+	c #A46F78",
"O+	c #AB8386",
"P+	c #B79692",
"Q+	c #BBA09A",
"R+	c #BFAA9E",
"S+	c #CDB4A7",
"T+	c #D4BAAD",
"U+	c #D3BCAE",
"V+	c #D3BFB2",
"W+	c #D6C1B4",
"X+	c #D9C2B3",
"Y+	c #D9C2B2",
"Z+	c #D8C2B2",
"`+	c #D8C1B2",
" @	c #D7C0B1",
".@	c #D5BDAF",
"+@	c #CCB5A8",
"@@	c #AB9894",
"#@	c #776C6F",
"$@	c #6D6965",
"%@	c #79866A",
"&@	c #8F8D6E",
"*@	c #9E7E6C",
"=@	c #A96A69",
"-@	c #B26266",
";@	c #A0676D",
">@	c #947577",
",@	c #A28881",
"'@	c #AC9089",
")@	c #B49C90",
"!@	c #C7AAA0",
"~@	c #CEAFA6",
"{@	c #CFB0A6",
"]@	c #D1B6A9",
"^@	c #D5BDAD",
"/@	c #D8BFAF",
"(@	c #D7C0B0",
"_@	c #D8C0B0",
":@	c #C7B1A4",
"<@	c #AE9E99",
"[@	c #8B8A87",
"}@	c #767D73",
"|@	c #707E6D",
"1@	c #6F856A",
"2@	c #788D6A",
"3@	c #7E7969",
"4@	c #7B6768",
"5@	c #876D6E",
"6@	c #937674",
"7@	c #9A7978",
"8@	c #AB8181",
"9@	c #C09193",
"0@	c #C49B9B",
"a@	c #C9A5A0",
"b@	c #CBACA4",
"c@	c #CFB3A8",
"d@	c #D3B8AB",
"e@	c #D2B8A9",
"f@	c #CDB5A7",
"g@	c #C6B0A4",
"h@	c #AE9A93",
"i@	c #797479",
"j@	c #666668",
"k@	c #767572",
"l@	c #786B6D",
"m@	c #776467",
"n@	c #796064",
"o@	c #85666A",
"p@	c #996E73",
"q@	c #AE777E",
"r@	c #BA808A",
"s@	c #BE868E",
"t@	c #BC8C90",
"u@	c #BA9694",
"v@	c #BB9E99",
"w@	c #BBA39C",
"x@	c #B8A29C",
"y@	c #B09A92",
"z@	c #A59692",
"A@	c #998C8D",
"B@	c #927E80",
"C@	c #92797C",
"D@	c #967E82",
"E@	c #9D888A",
"F@	c #AE9B9C",
"                  . + @ # $ % & * = - ; >                   ",
"          , ' ) ! ~ { ] ^ / ( _ : < [ } | 1 2 3 4           ",
"      5 6 7 8 9 0 a b c d e f g h i j k l m n o p q r       ",
"    s t 8 u v w x x b y z A B C D E F G H I J K L M N O     ",
"  P Q R ~ S T U b b V W X Y Z `  ...+.@.#.$.%.&.*.=.-.;.>.  ",
",.'.).!.~.{.].^./.(._.:.<.[.}.|.1.2.3.4.5.6.7.8.9.0.a.b.c.d.",
"e.f.g.h.i.j.k.l.m.n.o.p.q.r.s.t.u.v.w.x.y.z.A.B.C.D.E.F.G.H.",
"I.J.K.L.M.N.O.P.Q.R.S.T.U.V.W.X.Y.Z.`. +.+++@+#+$+%+&+*+=+-+",
";+>+,+'+)+!+~+{+]+^+/+(+_+:+<+[+}+|+1+2+3+4+5+6+7+8+9+0+a+b+",
"  c+d+e+f+g+h+i+j+k+l+m+n+o+p+q+r+s+t+u+v+w+x+y+z+A+B+C+D+  ",
"  E+F+G+H+I+J+K+L+M+N+O+P+Q+R+S+T+U+V+W+X+Y+Z+`+ @.@+@@@    ",
"      #@$@%@&@*@=@-@;@>@,@'@)@!@~@{@]@^@/@(@(@_@_@:@<@      ",
"        [@}@|@1@2@3@4@5@6@7@8@9@0@a@b@c@d@e@f@g@h@          ",
"            i@j@k@l@m@n@o@p@q@r@s@t@u@v@w@x@y@z@            ",
"                        A@B@C@D@E@F@                        "};
