/* XPM */
static char * monitor_xpm[] = {
"29 25 18 1",
" 	c None",
".	c #7E7E7E",
"+	c #080808",
"@	c #675251",
"#	c #DDDDDE",
"$	c #9B999C",
"%	c #C0C2C4",
"&	c #AFAEB1",
"*	c #CECACF",
"=	c #005858",
"-	c #7300F7",
";	c #5BFFFF",
">	c #A9797D",
",	c #FFFFFF",
"'	c #B4FFFF",
")	c #C8C8CA",
"!	c #F5F6F6",
"~	c #00F908",
"                             ",
"  +++++++++++++++++++++++++  ",
"  @+#@+@@@@++++@@@++++@@#+=  ",
"  ++*+-----------------+*++  ",
"  ++>-,,,,--------------@+@  ",
"  @+>-'-----------------@++  ",
"  @+>-'-----------------@+@  ",
"  @+>-'----------------->++  ",
"  ++>------------------->+@  ",
"  ++>------------------->++  ",
"  @+>------------------->++  ",
"  ++>-------------------@++  ",
"  =+>-------------------@++  ",
"  ++>-------------------@++  ",
"  ++>------------------->+@  ",
"  ++>------------------->++  ",
"  ++>------------------->++  ",
"  @+#>@@@@@@@@@@@@@@@@@>#++  ",
"  #@+++++++++++++++++++++@&  ",
"  +++++++++++++++++++@+=@++  ",
"    @&@@@@$$$$$$&$&$.*++@    ",
"     $$+@@@++++++@++@.$$#    ",
"       ,%.@+@.$..+.@&,@      ",
"      @.....@.@@......+      ",
"      @@@@.$$.$$....@@+      "};
